<?xml version="1.0" standalone="no"?>
<!DOCTYPE svg PUBLIC "-//W3C//DTD SVG 20010904//EN"
 "http://www.w3.org/TR/2001/REC-SVG-20010904/DTD/svg10.dtd">
<svg version="1.0" xmlns="http://www.w3.org/2000/svg"
 width="724.000000pt" height="722.000000pt" viewBox="0 0 724.000000 722.000000"
 preserveAspectRatio="xMidYMid meet">

<g transform="translate(0.000000,722.000000) scale(0.100000,-0.100000)"
fill="#000000" stroke="none">
<path d="M3256 6859 c-114 -10 -222 -23 -240 -28 -17 -5 -56 -12 -86 -16 -30
-3 -77 -12 -105 -20 -27 -7 -79 -21 -115 -29 -90 -22 -159 -42 -200 -56 -239
-85 -332 -124 -480 -200 -81 -42 -122 -64 -221 -122 -110 -63 -330 -216 -364
-252 -5 -6 -28 -24 -50 -40 -150 -111 -458 -442 -587 -631 -30 -44 -70 -102
-89 -130 -19 -27 -40 -61 -47 -75 -6 -14 -16 -32 -22 -40 -21 -33 -120 -211
-120 -217 0 -3 -15 -38 -34 -77 -19 -39 -46 -100 -61 -136 -14 -36 -29 -72
-33 -80 -5 -8 -21 -55 -36 -105 -16 -49 -34 -106 -42 -125 -7 -19 -16 -51 -19
-70 -4 -19 -12 -53 -20 -75 -26 -81 -65 -283 -87 -455 -14 -114 -14 -662 1
-770 22 -168 74 -441 88 -462 3 -6 12 -36 19 -67 12 -57 22 -87 55 -176 11
-28 19 -57 19 -66 0 -8 7 -24 15 -35 8 -10 15 -26 15 -34 0 -9 9 -33 20 -55
11 -22 20 -43 20 -48 0 -5 37 -83 82 -174 112 -222 118 -233 129 -233 5 0 9
-6 9 -13 0 -11 52 -94 131 -207 221 -320 555 -644 888 -862 73 -48 278 -168
287 -168 4 0 15 -6 23 -13 9 -7 59 -32 111 -56 52 -23 107 -49 122 -57 14 -8
32 -14 40 -14 7 0 30 -9 51 -20 55 -30 72 -26 96 20 12 22 21 46 21 53 0 7 6
24 14 38 7 14 16 39 20 55 4 16 13 43 20 59 8 17 24 57 36 90 13 33 31 79 41
102 11 23 19 48 19 55 0 7 6 25 14 40 23 44 28 83 13 96 -8 7 -34 19 -58 27
-24 9 -57 21 -73 28 -58 24 -282 140 -321 166 -22 15 -47 30 -56 33 -24 9
-149 99 -256 184 -116 92 -319 295 -400 399 -84 107 -181 245 -193 273 -6 13
-23 42 -39 65 -15 23 -56 101 -90 172 -34 72 -69 143 -77 158 -7 16 -14 36
-14 46 0 9 -6 25 -14 36 -7 11 -17 36 -21 55 -4 19 -11 40 -15 45 -5 6 -15 37
-24 70 -29 116 -38 150 -51 200 -8 28 -19 86 -24 130 -5 44 -15 103 -21 130
-15 64 -15 546 -1 638 6 37 16 97 21 135 24 161 122 502 169 590 6 9 22 44 36
77 15 33 38 83 52 110 14 28 33 64 41 80 14 27 63 106 130 210 22 33 95 129
177 234 7 9 66 71 131 137 108 113 289 265 409 346 86 58 277 165 360 203 44
20 92 43 107 51 14 8 31 14 38 14 7 0 26 7 43 15 84 38 256 89 417 123 206 44
241 47 550 47 214 0 320 -4 355 -13 28 -7 79 -16 115 -21 66 -9 152 -28 250
-57 91 -27 204 -64 225 -74 11 -5 49 -21 85 -36 176 -71 350 -168 535 -298
160 -112 365 -305 491 -461 27 -33 54 -64 60 -70 46 -41 230 -344 299 -490 31
-66 60 -128 65 -137 6 -10 24 -59 40 -110 17 -51 35 -102 40 -113 5 -11 12
-36 15 -55 4 -19 13 -55 21 -80 7 -25 16 -62 19 -82 6 -38 6 -38 53 -38 26 0
65 5 87 11 22 6 69 17 105 24 36 8 76 18 90 23 14 5 48 13 75 16 28 4 70 14
95 21 25 8 67 17 93 20 65 9 75 30 52 116 -10 35 -21 83 -26 107 -5 23 -13 51
-18 61 -6 10 -15 36 -20 57 -5 22 -21 71 -36 109 -14 39 -31 86 -37 105 -6 19
-17 44 -24 55 -8 11 -14 25 -14 32 0 21 -83 196 -147 308 -12 22 -26 47 -30
55 -14 27 -96 164 -105 175 -5 5 -43 60 -86 122 -42 61 -122 164 -177 228
-101 119 -353 369 -411 409 -18 11 -68 49 -113 84 -117 91 -201 147 -336 224
-66 38 -127 73 -135 78 -8 6 -22 13 -30 17 -8 3 -46 20 -85 38 -74 34 -167 74
-250 107 -27 11 -65 26 -83 34 -18 8 -40 14 -50 14 -9 0 -29 6 -44 14 -15 8
-42 17 -60 21 -18 3 -53 12 -78 20 -148 45 -412 90 -655 110 -226 18 -241 18
-509 -6z"/>
<path d="M4965 4275 c-119 -21 -189 -58 -284 -148 -82 -78 -130 -185 -150
-338 -14 -107 -14 -161 0 -268 23 -180 83 -294 199 -384 93 -73 206 -107 350
-107 139 0 267 38 356 106 81 62 108 103 150 230 36 106 30 114 -89 114 -51 0
-101 -3 -112 -6 -12 -3 -32 -29 -49 -65 -62 -128 -170 -172 -340 -137 -101 20
-176 114 -203 253 -16 85 -17 173 -2 267 17 111 74 192 168 235 48 22 64 24
156 21 98 -3 105 -5 142 -34 21 -17 55 -55 75 -85 41 -58 53 -66 114 -69 90
-6 152 0 158 15 6 18 -33 144 -64 202 -26 50 -100 120 -156 147 -21 10 -48 24
-59 29 -28 14 -179 36 -240 35 -27 0 -81 -6 -120 -13z"/>
<path d="M1675 4250 c-33 -3 -70 -12 -82 -18 -22 -12 -59 -80 -74 -135 -4 -18
-17 -57 -28 -87 -11 -30 -32 -86 -46 -125 -14 -38 -32 -90 -39 -115 -19 -62
-74 -222 -84 -240 -5 -8 -21 -55 -36 -105 -16 -49 -34 -101 -41 -115 -7 -14
-16 -41 -20 -60 -4 -19 -11 -41 -16 -50 -12 -20 -40 -101 -42 -120 -2 -13 18
-15 123 -15 144 0 132 -9 171 125 34 113 26 110 258 109 108 0 205 -4 215 -8
14 -5 30 -39 55 -117 l36 -109 129 -3 128 -3 -6 23 c-4 13 -11 39 -16 59 -5
19 -16 49 -25 65 -8 16 -15 36 -15 44 0 8 -9 33 -20 55 -11 22 -20 47 -20 55
0 8 -7 28 -15 44 -8 15 -15 36 -15 45 -1 9 -9 34 -20 56 -11 22 -19 46 -20 53
0 8 -6 28 -14 45 -26 62 -55 142 -62 172 -4 17 -12 39 -18 50 -6 11 -16 38
-22 60 -14 47 -41 121 -54 150 -5 11 -12 31 -15 45 -4 14 -13 39 -20 55 -8 17
-16 42 -20 57 -3 15 -15 37 -27 48 -23 22 -65 24 -183 10z m81 -356 c40 -109
104 -319 104 -340 0 -12 -7 -25 -16 -28 -27 -10 -224 -7 -246 5 -24 13 -24 12
33 194 53 168 80 236 93 232 6 -2 20 -30 32 -63z"/>
<path d="M2770 4251 c-62 -9 -87 -25 -110 -71 -20 -38 -20 -56 -18 -577 l3
-538 120 0 120 0 3 584 c1 423 -1 588 -9 597 -12 15 -35 16 -109 5z"/>
<path d="M3350 4253 c-56 -9 -86 -25 -107 -56 l-23 -33 0 -539 c0 -297 0 -546
0 -553 0 -10 28 -12 123 -10 l122 3 3 210 c3 260 -8 245 161 245 143 0 214
-17 235 -58 8 -15 21 -101 30 -192 9 -91 19 -175 22 -188 6 -22 9 -23 133 -20
l126 3 -2 25 c-2 14 -7 84 -12 155 -20 265 -30 298 -101 363 l-25 22 47 43
c77 70 92 112 92 247 0 104 -3 120 -26 165 -45 84 -115 136 -215 155 -55 11
-530 21 -583 13z m446 -225 c85 -15 116 -46 122 -123 6 -69 -8 -103 -55 -135
-34 -23 -44 -25 -188 -27 -208 -2 -198 -9 -198 145 0 68 4 126 8 130 3 4 52
10 108 13 56 3 110 6 121 7 10 1 47 -3 82 -10z"/>
<path d="M6662 3782 c-11 -11 -22 -38 -26 -62 -8 -50 -35 -100 -54 -100 -22 0
-45 66 -31 89 14 21 6 51 -13 51 -43 -1 -60 -66 -34 -134 17 -45 46 -66 91
-66 31 0 71 52 80 105 11 68 15 75 40 75 33 0 38 -13 37 -86 -1 -36 3 -66 10
-70 13 -8 45 31 51 63 6 30 -27 124 -49 140 -26 19 -81 16 -102 -5z"/>
<path d="M6522 3305 c-27 -57 -28 -79 -1 -121 51 -84 121 -65 164 44 20 50 43
66 68 47 21 -15 22 -41 2 -90 -12 -28 -13 -40 -4 -51 17 -21 27 -17 49 19 13
21 20 50 20 86 0 46 -4 60 -27 83 -54 57 -128 22 -153 -71 -10 -37 -25 -51
-56 -51 -20 0 -27 42 -14 90 9 34 9 45 -2 51 -21 13 -23 12 -46 -36z"/>
<path d="M6482 2908 c-25 -42 -39 -152 -22 -173 7 -8 24 -15 39 -15 14 0 45
-7 68 -15 22 -8 70 -17 106 -21 72 -7 68 -10 81 67 4 21 13 51 22 68 16 33 12
51 -11 51 -19 0 -41 -36 -49 -79 -7 -41 -22 -61 -46 -61 -24 0 -34 25 -35 82
0 26 -4 48 -10 49 -5 1 -21 -19 -35 -45 -22 -41 -28 -46 -55 -44 -37 4 -44 35
-20 103 23 69 2 90 -33 33z"/>
<path d="M6363 2473 c-63 -95 -37 -190 65 -234 52 -23 78 -24 125 -4 55 23 87
68 87 123 0 68 -9 91 -37 98 -34 9 -38 0 -19 -45 18 -45 11 -76 -24 -111 -39
-39 -134 -20 -172 35 -16 22 -7 64 22 104 17 23 28 46 25 51 -12 20 -54 10
-72 -17z"/>
<path d="M6186 2039 c-90 -71 -86 -176 10 -252 21 -16 41 -21 95 -21 64 -1 69
1 97 32 44 49 58 102 41 149 -23 59 -43 49 -47 -22 -3 -49 -8 -65 -29 -87 -31
-33 -60 -35 -111 -9 -81 42 -95 97 -37 150 55 49 38 105 -19 60z"/>
<path d="M5955 1640 c-4 -6 26 -43 65 -82 39 -39 75 -79 80 -89 22 -40 -37
-111 -84 -102 -13 3 -42 21 -64 41 -82 77 -103 93 -112 87 -15 -9 -12 -53 4
-62 8 -4 37 -29 65 -55 59 -54 105 -71 156 -57 49 14 95 78 95 132 0 36 -7 46
-79 118 -75 75 -111 94 -126 69z"/>
<path d="M5607 1261 c-37 -24 -77 -79 -77 -107 0 -12 12 -36 26 -53 31 -37 63
-40 119 -11 45 23 88 26 103 7 9 -10 4 -21 -18 -45 -16 -18 -36 -32 -44 -32
-17 0 -48 -39 -40 -52 14 -22 62 -6 106 35 64 57 73 103 30 147 -34 34 -63 37
-107 14 -50 -27 -82 -33 -100 -20 -25 18 -2 61 39 73 24 7 32 15 34 36 3 23 0
27 -20 26 -13 0 -36 -9 -51 -18z"/>
<path d="M4839 772 c-30 -28 -42 -47 -46 -77 -11 -88 36 -168 113 -194 37 -12
47 -11 87 4 92 35 124 135 73 225 -33 58 -69 80 -134 80 -47 0 -57 -4 -93 -38z
m154 -51 c19 -19 30 -42 34 -69 5 -37 2 -45 -27 -72 -18 -16 -41 -30 -52 -30
-31 0 -71 38 -89 83 -15 37 -15 45 -3 69 17 33 62 59 89 51 11 -3 33 -17 48
-32z"/>
<path d="M4560 660 c-14 -4 -58 -24 -98 -44 -84 -42 -91 -63 -18 -58 40 3 48
0 53 -16 9 -38 88 -186 100 -190 7 -2 15 8 18 21 6 23 -18 89 -61 169 -19 35
-5 73 31 82 17 4 25 12 23 23 -4 20 -16 24 -48 13z"/>
<path d="M2746 608 c-2 -7 -13 -43 -25 -79 -12 -36 -21 -75 -21 -86 0 -11 -7
-37 -15 -56 -20 -47 -20 -47 13 -47 23 0 30 6 37 33 8 25 16 32 34 32 20 0 31
-12 55 -58 19 -37 36 -57 46 -55 23 5 24 35 2 77 -39 75 -26 114 51 148 27 12
37 46 18 58 -5 3 -36 -11 -69 -30 -81 -47 -96 -46 -89 3 5 39 -6 72 -24 72 -5
0 -11 -6 -13 -12z"/>
<path d="M3225 512 c-33 -6 -38 -18 -46 -109 -4 -49 -11 -107 -15 -130 -6 -41
-6 -42 30 -57 43 -18 149 -31 166 -21 19 12 -18 44 -59 50 -65 11 -83 22 -79
53 3 23 8 27 38 30 67 5 83 11 70 27 -7 8 -23 15 -36 15 -34 0 -58 39 -44 75
9 24 14 27 43 21 95 -21 97 -21 97 8 0 18 -5 26 -17 27 -10 0 -43 4 -73 8 -30
3 -64 5 -75 3z"/>
<path d="M3794 437 c-12 -18 -24 -42 -28 -55 -8 -23 -57 -43 -63 -25 -11 31
-65 104 -76 100 -24 -8 -9 -63 32 -123 34 -49 41 -67 41 -107 0 -33 5 -49 15
-53 27 -11 43 15 47 74 3 46 11 67 42 110 25 36 36 62 34 79 -4 38 -20 38 -44
0z"/>
</g>
</svg>
